<svg width="58" height="58" viewBox="0 0 58 58" fill="none" xmlns="http://www.w3.org/2000/svg">
<g id="star">
<g id="Layer 47">
<path id="Vector" d="M51.6928 28.0333C52.3566 27.3547 52.8189 26.505 53.028 25.579C53.2371 24.653 53.1848 23.6871 52.877 22.7891C52.5881 21.8885 52.0521 21.087 51.33 20.476C50.608 19.8651 49.7289 19.4691 48.7928 19.3333L38.4253 17.7383C38.3769 17.7243 38.3323 17.6996 38.2947 17.6662C38.2571 17.6328 38.2274 17.5913 38.2078 17.545L33.6645 7.87829C33.2661 6.97311 32.613 6.20331 31.7849 5.66267C30.9568 5.12202 29.9893 4.83387 29.0003 4.8333C28.0228 4.82925 27.0648 5.10762 26.2417 5.63494C25.4186 6.16225 24.7653 6.91608 24.3603 7.80579L19.817 17.4725C19.7922 17.5196 19.7579 17.5611 19.7163 17.5944C19.6747 17.6276 19.6267 17.6519 19.5753 17.6658L9.23196 19.3333C8.29453 19.4729 7.4142 19.8699 6.6889 20.48C5.9636 21.0901 5.42176 21.8894 5.12363 22.7891C4.8271 23.6903 4.78294 24.6554 4.99595 25.5798C5.20895 26.5043 5.67099 27.3528 6.33196 28.0333L13.9686 35.8874C13.9906 35.9369 14.002 35.9904 14.002 36.0445C14.002 36.0986 13.9906 36.1522 13.9686 36.2016L12.1803 47.1733C12.014 48.1288 12.1224 49.1118 12.4928 50.0082C12.8632 50.9045 13.4805 51.6773 14.2727 52.2367C15.065 52.7961 15.9998 53.1191 16.9684 53.1682C17.937 53.2173 18.8997 52.9905 19.7445 52.5141L28.7586 47.5116C28.8034 47.4883 28.8531 47.4761 28.9036 47.4761C28.9541 47.4761 29.0038 47.4883 29.0486 47.5116L38.0628 52.5141C38.9087 52.9803 39.8687 53.199 40.8331 53.1454C41.7974 53.0918 42.7272 52.7679 43.5162 52.2108C44.3052 51.6537 44.9216 50.8859 45.2948 49.9951C45.6681 49.1043 45.7832 48.1264 45.627 47.1733L43.9595 36.2499C43.934 36.2059 43.9206 36.1558 43.9206 36.1049C43.9206 36.054 43.934 36.004 43.9595 35.9599L51.6928 28.0333Z" fill="#FF8723"/>
</g>
</g>
</svg>
