<svg width="24" height="24" viewBox="0 0 24 24" fill="none" xmlns="http://www.w3.org/2000/svg">
<path fill-rule="evenodd" clip-rule="evenodd" d="M20.375 10.9788L12.5 20.375L4.625 10.9401C3.68328 9.63152 3.3125 8.74755 3.3125 7.53743C3.3125 5.28059 4.92359 3.2495 7.25 3.23047C9.16362 3.21472 11.3332 5.16901 12.5 6.6423C13.636 5.22086 15.8364 3.23047 17.75 3.23047C20.0147 3.23047 21.6875 5.28059 21.6875 7.53743C21.6875 8.74755 21.3942 9.69716 20.375 10.9788ZM17.75 2C15.5627 2 13.9077 3.28363 12.5 4.625C11.1593 3.20159 9.43728 2 7.25 2C4.16956 2 2 4.64862 2 7.53743C2 9.08684 2.63459 10.2025 3.32956 11.2511L11.4887 21.0332C12.4042 22.0025 12.5774 22.0025 13.4929 21.0332L21.6704 11.2511C22.4881 10.2025 23 9.08684 23 7.53743C23 4.64862 20.8304 2 17.75 2Z" fill="black"/>
</svg>
